<svg xmlns="http://www.w3.org/2000/svg" version="1.0" width="1408.000000pt" height="768.000000pt" viewBox="0 0 1408.000000 768.000000" preserveAspectRatio="xMidYMid meet">

<g transform="translate(0.000000,768.000000) scale(0.100000,-0.100000)" fill="#ffffff" stroke="none">
<path d="M4737 5283 c-3 -5 -30 -64 -60 -133 -30 -69 -88 -197 -127 -285 -65 -144 -366 -825 -376 -850 -3 -6 37 -10 108 -9 86 1 113 5 117 15 23 73 443 1049 450 1049 5 0 236 -534 256 -590 5 -13 -20 -15 -184 -14 l-190 0 -26 -73 c-14 -41 -28 -80 -32 -88 -4 -13 35 -15 257 -17 l261 -3 58 -138 57 -137 113 -5 c89 -4 112 -3 108 7 -31 75 -400 908 -515 1163 l-50 110 -110 3 c-61 1 -113 -1 -115 -5z" fill="#ffffff"/>
<path d="M5640 4875 c0 -460 4 -499 66 -623 86 -175 259 -272 484 -272 221 0 403 104 485 274 60 126 65 177 65 626 l0 400 -90 0 c-49 0 -93 1 -97 3 -5 1 -10 -189 -13 -423 -5 -419 -6 -426 -29 -483 -47 -114 -135 -184 -260 -207 -139 -25 -277 31 -345 139 -59 93 -60 102 -66 555 l-5 420 -97 0 -98 1 0 -410z" fill="#ffffff"/>
<path d="M8832 5274 c-25 -48 -521 -1166 -559 -1261 -4 -10 20 -13 101 -13 l106 0 19 38 c10 20 47 105 81 187 76 184 350 827 358 839 3 5 13 -7 23 -26 13 -26 214 -488 246 -566 4 -10 -33 -12 -186 -10 l-191 3 -17 -45 c-9 -25 -22 -60 -30 -79 -7 -18 -13 -37 -13 -42 0 -5 116 -9 259 -9 l258 0 26 -57 c14 -32 41 -96 61 -143 l36 -85 110 0 c99 0 109 2 104 17 -3 10 -100 228 -216 485 -115 257 -239 533 -275 613 -35 80 -67 148 -71 152 -4 4 -55 10 -113 14 -98 6 -108 5 -117 -12z" fill="#ffffff"/>
<path d="M7070 4646 l0 -635 100 -3 100 -3 0 213 0 212 173 0 c168 0 173 -1 186 -22 7 -13 75 -110 149 -215 l136 -193 118 0 c65 0 118 3 118 6 0 7 -132 191 -249 348 -45 60 -80 110 -79 110 2 1 21 8 43 15 175 59 277 246 245 448 -28 173 -137 294 -305 338 -48 12 -126 15 -397 15 l-338 0 0 -634z m625 453 c150 -28 223 -120 213 -267 -7 -99 -45 -158 -126 -199 -32 -16 -68 -18 -274 -21 l-238 -3 0 244 c0 134 3 247 7 250 11 11 355 8 418 -4z" fill="#ffffff"/>
<path d="M6615 3824 c-519 -43 -1032 -178 -1536 -406 -188 -84 -260 -125 -144 -82 605 228 1204 336 1784 321 343 -9 586 -42 1122 -151 383 -78 536 -102 742 -116 397 -26 743 56 985 234 66 49 80 66 35 42 -46 -23 -213 -73 -308 -93 -70 -13 -137 -17 -300 -17 -253 1 -339 12 -870 119 -607 122 -790 146 -1180 150 -154 1 -302 1 -330 -1z" fill="#ffffff"/>
<path d="M5875 3120 c-126 -18 -195 -91 -195 -208 0 -112 46 -151 258 -218 175 -55 212 -82 212 -155 0 -54 -28 -102 -72 -126 -25 -14 -55 -18 -128 -18 -102 1 -152 16 -234 73 -37 25 -39 26 -52 7 -22 -30 -17 -41 34 -73 79 -51 144 -67 267 -67 94 0 116 3 151 22 109 58 144 186 79 285 -29 44 -111 85 -235 118 -158 41 -210 81 -210 160 0 137 196 184 378 91 24 -12 45 -21 47 -19 6 7 25 47 25 53 0 12 -126 65 -169 70 -88 11 -106 11 -156 5z" fill="#ffffff"/>
<path d="M7797 3113 c-9 -14 -357 -764 -357 -769 0 -2 17 -4 38 -4 l37 1 159 350 c88 192 162 346 166 342 11 -13 179 -383 186 -409 l6 -24 -146 0 -146 0 -10 -26 c-6 -14 -10 -27 -10 -30 0 -2 78 -4 174 -4 l174 0 43 -100 44 -100 38 0 c20 0 37 3 37 6 0 9 -124 281 -248 547 l-106 227 -38 0 c-20 0 -39 -3 -41 -7z" fill="#ffffff"/>
<path d="M6590 2725 l0 -385 290 0 290 0 0 30 0 30 -255 0 -255 0 0 150 0 150 220 0 220 0 0 33 0 32 -217 0 -218 0 -3 143 -3 142 251 0 250 0 0 30 0 30 -285 0 -285 0 0 -385z" fill="#ffffff"/>
</g>
</svg>